<?xml version="1.0" encoding="utf-8"?>
<!-- Generator: Adobe Illustrator 16.0.0, SVG Export Plug-In . SVG Version: 6.00 Build 0)  -->
<!DOCTYPE svg PUBLIC "-//W3C//DTD SVG 1.1//EN" "http://www.w3.org/Graphics/SVG/1.1/DTD/svg11.dtd">
<svg version="1.1" id="Layer_1" xmlns="http://www.w3.org/2000/svg" xmlns:xlink="http://www.w3.org/1999/xlink" x="0px" y="0px"
	 width="48px" height="48px" viewBox="0 0 48 48" enable-background="new 0 0 48 48" xml:space="preserve">
<circle fill="#1CB5EA" cx="24.25" cy="24.25" r="22.406"/>
<path fill="#FFFFFF" d="M22.159,16.044c-1.836,0-4.347,0.311-5.501,1.465c0.163-1.639,0.853-3.21,2.075-4.492
	c3.116-3.264,8.947-2.947,12.519,0.204c1.231,1.086,2.08,2.414,2.538,3.822c0.121,0.374,0.214,0.752,0.28,1.134
	c0.119-2.945-1.108-5.98-3.617-8.193C26.049,6.1,19.389,6.208,15.548,10.232c-2.155,2.259-3.086,5.293-2.446,8.156
	c0,0,0.084,0.553,0.606,1.461c-0.021,0.017-0.044,0.031-0.065,0.047l0.299,0.504c1.415-0.629,2.997-0.981,4.667-0.981
	c6.021,0,10.902,4.571,10.902,10.21c0,5.639-4.88,10.209-10.901,10.209c-2.625,0-5.033-0.87-6.916-2.317
	c2.464,2.862,6.236,4.693,10.465,4.693c7.42,0,13.437-5.636,13.437-12.585C35.597,22.679,29.58,16.044,22.159,16.044z"/>
<g>
	<circle fill="#FFFFFF" cx="20.351" cy="29.544" r="5.15"/>
	<path fill="#1CB5EA" d="M22.958,27.009c0,0-3.162,1.618-5.478,5.478C17.48,32.486,20.719,30.645,22.958,27.009z"/>
	<path fill="#1CB5EA" d="M17.48,26.976c0,0,1.618,3.162,5.478,5.478C22.958,32.453,21.117,29.216,17.48,26.976z"/>
</g>
</svg>
